<svg width="32" height="32" viewBox="0 0 32 32" fill="none" xmlns="http://www.w3.org/2000/svg">
<path d="M13.0426 15.999L19.0909 9.95758C19.1973 9.8511 19.2817 9.72468 19.3393 9.58556C19.3969 9.44643 19.4266 9.29731 19.4266 9.14672C19.4266 8.99613 19.3969 8.84702 19.3393 8.70789C19.2817 8.56876 19.1973 8.44235 19.0909 8.33587C18.9845 8.22938 18.8582 8.14492 18.7192 8.08729C18.5802 8.02966 18.4312 8 18.2807 8C18.1302 8 17.9812 8.02966 17.8422 8.08729C17.7032 8.14492 17.5768 8.22938 17.4704 8.33587L10.6232 15.1882C10.5162 15.2943 10.4313 15.4206 10.3734 15.5598C10.3155 15.699 10.2856 15.8483 10.2856 15.999C10.2856 16.1498 10.3155 16.2991 10.3734 16.4382C10.4313 16.5774 10.5162 16.7037 10.6232 16.8099L17.4704 23.6622C17.5765 23.7692 17.7027 23.8542 17.8418 23.9122C17.9809 23.9701 18.13 24 18.2807 24C18.4313 24 18.5805 23.9701 18.7196 23.9122C18.8586 23.8542 18.9848 23.7692 19.0909 23.6622C19.1979 23.556 19.2828 23.4297 19.3407 23.2905C19.3987 23.1514 19.4285 23.0021 19.4285 22.8513C19.4285 22.7006 19.3987 22.5513 19.3407 22.4121C19.2828 22.273 19.1979 22.1466 19.0909 22.0405L13.0426 15.999Z" fill="white"/>
</svg>
