<svg width="32" height="32" viewBox="0 0 32 32" fill="none" xmlns="http://www.w3.org/2000/svg">
<path d="M18.9574 15.999L12.9091 9.95758C12.8027 9.8511 12.7183 9.72468 12.6607 9.58556C12.6031 9.44643 12.5734 9.29731 12.5734 9.14672C12.5734 8.99613 12.6031 8.84702 12.6607 8.70789C12.7183 8.56876 12.8027 8.44235 12.9091 8.33587C13.0155 8.22938 13.1418 8.14492 13.2808 8.08729C13.4198 8.02966 13.5688 8 13.7193 8C13.8698 8 14.0188 8.02966 14.1578 8.08729C14.2968 8.14492 14.4232 8.22938 14.5296 8.33587L21.3768 15.1882C21.4838 15.2943 21.5687 15.4206 21.6266 15.5598C21.6845 15.699 21.7144 15.8483 21.7144 15.999C21.7144 16.1498 21.6845 16.2991 21.6266 16.4382C21.5687 16.5774 21.4838 16.7037 21.3768 16.8099L14.5296 23.6622C14.4235 23.7692 14.2973 23.8542 14.1582 23.9122C14.0191 23.9701 13.87 24 13.7193 24C13.5687 24 13.4195 23.9701 13.2804 23.9122C13.1414 23.8542 13.0152 23.7692 12.9091 23.6622C12.8021 23.556 12.7172 23.4297 12.6593 23.2905C12.6013 23.1514 12.5715 23.0021 12.5715 22.8513C12.5715 22.7006 12.6013 22.5513 12.6593 22.4121C12.7172 22.273 12.8021 22.1466 12.9091 22.0405L18.9574 15.999Z" fill="white"/>
</svg>
